<mxfile host="app.diagrams.net" modified="2023-04-27T06:49:39.066Z" agent="Mozilla/5.0 (Windows NT 10.0; WOW64) AppleWebKit/537.36 (KHTML, like Gecko) Chrome/84.0.4147.89 Safari/537.36 SLBrowser/7.0.0.12151 SLBChan/103" etag="i7b3-p_zE6h4JFYrSAxk" version="21.2.2" type="github">
  <diagram id="R2lEEEUBdFMjLlhIrx00" name="Page-1">
    <mxGraphModel dx="3200" dy="1887" grid="1" gridSize="10" guides="1" tooltips="1" connect="1" arrows="1" fold="1" page="1" pageScale="1" pageWidth="850" pageHeight="1100" math="0" shadow="0" extFonts="Permanent Marker^https://fonts.googleapis.com/css?family=Permanent+Marker">
      <root>
        <mxCell id="0" />
        <mxCell id="1" parent="0" />
        <mxCell id="25i5rknV7NlBSmyeyTin-1" value="学生" style="rounded=0;whiteSpace=wrap;html=1;" vertex="1" parent="1">
          <mxGeometry x="-660" y="30" width="120" height="80" as="geometry" />
        </mxCell>
        <mxCell id="25i5rknV7NlBSmyeyTin-2" value="" style="endArrow=none;html=1;rounded=0;exitX=0;exitY=0;exitDx=0;exitDy=0;" edge="1" parent="1" source="25i5rknV7NlBSmyeyTin-1">
          <mxGeometry width="50" height="50" relative="1" as="geometry">
            <mxPoint x="-670" y="20" as="sourcePoint" />
            <mxPoint x="-720" y="-30" as="targetPoint" />
          </mxGeometry>
        </mxCell>
        <mxCell id="25i5rknV7NlBSmyeyTin-3" value="学号" style="ellipse;whiteSpace=wrap;html=1;" vertex="1" parent="1">
          <mxGeometry x="-830" y="-90" width="120" height="80" as="geometry" />
        </mxCell>
        <mxCell id="25i5rknV7NlBSmyeyTin-4" value="" style="endArrow=none;html=1;rounded=0;exitX=0;exitY=0.5;exitDx=0;exitDy=0;" edge="1" parent="1" source="25i5rknV7NlBSmyeyTin-1" target="25i5rknV7NlBSmyeyTin-13">
          <mxGeometry width="50" height="50" relative="1" as="geometry">
            <mxPoint x="-630" as="sourcePoint" />
            <mxPoint x="-810" y="100" as="targetPoint" />
          </mxGeometry>
        </mxCell>
        <mxCell id="25i5rknV7NlBSmyeyTin-5" value="" style="endArrow=none;html=1;rounded=0;exitX=0;exitY=0.25;exitDx=0;exitDy=0;" edge="1" parent="1" source="25i5rknV7NlBSmyeyTin-1" target="25i5rknV7NlBSmyeyTin-12">
          <mxGeometry width="50" height="50" relative="1" as="geometry">
            <mxPoint x="-630" as="sourcePoint" />
            <mxPoint x="-820" y="30" as="targetPoint" />
          </mxGeometry>
        </mxCell>
        <mxCell id="25i5rknV7NlBSmyeyTin-6" value="" style="endArrow=none;html=1;rounded=0;" edge="1" parent="1" source="25i5rknV7NlBSmyeyTin-1">
          <mxGeometry width="50" height="50" relative="1" as="geometry">
            <mxPoint x="-630" as="sourcePoint" />
            <mxPoint x="-493.7722322484269" y="17.357645155267164" as="targetPoint" />
          </mxGeometry>
        </mxCell>
        <mxCell id="25i5rknV7NlBSmyeyTin-7" value="" style="endArrow=none;html=1;rounded=0;exitX=0.383;exitY=0.005;exitDx=0;exitDy=0;exitPerimeter=0;" edge="1" parent="1" source="25i5rknV7NlBSmyeyTin-1" target="25i5rknV7NlBSmyeyTin-10">
          <mxGeometry width="50" height="50" relative="1" as="geometry">
            <mxPoint x="-630" as="sourcePoint" />
            <mxPoint x="-550" y="-70" as="targetPoint" />
          </mxGeometry>
        </mxCell>
        <mxCell id="25i5rknV7NlBSmyeyTin-8" value="" style="endArrow=none;html=1;rounded=0;exitX=0.25;exitY=0;exitDx=0;exitDy=0;" edge="1" parent="1" source="25i5rknV7NlBSmyeyTin-1" target="25i5rknV7NlBSmyeyTin-9">
          <mxGeometry width="50" height="50" relative="1" as="geometry">
            <mxPoint x="-670" y="10" as="sourcePoint" />
            <mxPoint x="-651" y="-80" as="targetPoint" />
          </mxGeometry>
        </mxCell>
        <mxCell id="25i5rknV7NlBSmyeyTin-9" value="姓名" style="ellipse;whiteSpace=wrap;html=1;" vertex="1" parent="1">
          <mxGeometry x="-711" y="-120" width="120" height="80" as="geometry" />
        </mxCell>
        <mxCell id="25i5rknV7NlBSmyeyTin-10" value="性别" style="ellipse;whiteSpace=wrap;html=1;" vertex="1" parent="1">
          <mxGeometry x="-570" y="-120" width="120" height="80" as="geometry" />
        </mxCell>
        <mxCell id="25i5rknV7NlBSmyeyTin-11" value="年龄" style="ellipse;whiteSpace=wrap;html=1;" vertex="1" parent="1">
          <mxGeometry x="-490" y="-20" width="120" height="80" as="geometry" />
        </mxCell>
        <mxCell id="25i5rknV7NlBSmyeyTin-12" value="宿舍号" style="ellipse;whiteSpace=wrap;html=1;" vertex="1" parent="1">
          <mxGeometry x="-880" y="-10" width="120" height="80" as="geometry" />
        </mxCell>
        <mxCell id="25i5rknV7NlBSmyeyTin-13" value="年级学院专业班级" style="ellipse;whiteSpace=wrap;html=1;" vertex="1" parent="1">
          <mxGeometry x="-880" y="80" width="120" height="80" as="geometry" />
        </mxCell>
        <mxCell id="25i5rknV7NlBSmyeyTin-23" value="宿管" style="rounded=0;whiteSpace=wrap;html=1;" vertex="1" parent="1">
          <mxGeometry x="-710" y="-720" width="120" height="60" as="geometry" />
        </mxCell>
        <mxCell id="25i5rknV7NlBSmyeyTin-24" value="" style="endArrow=none;html=1;rounded=0;exitX=1;exitY=0.25;exitDx=0;exitDy=0;entryX=0;entryY=0.5;entryDx=0;entryDy=0;" edge="1" parent="1" source="25i5rknV7NlBSmyeyTin-23" target="25i5rknV7NlBSmyeyTin-30">
          <mxGeometry width="50" height="50" relative="1" as="geometry">
            <mxPoint x="-550" y="-570" as="sourcePoint" />
            <mxPoint x="-480" y="-680" as="targetPoint" />
          </mxGeometry>
        </mxCell>
        <mxCell id="25i5rknV7NlBSmyeyTin-25" value="" style="endArrow=none;html=1;rounded=0;exitX=0.577;exitY=1;exitDx=0;exitDy=0;exitPerimeter=0;entryX=0.647;entryY=0;entryDx=0;entryDy=0;entryPerimeter=0;" edge="1" parent="1" source="25i5rknV7NlBSmyeyTin-23" target="25i5rknV7NlBSmyeyTin-28">
          <mxGeometry width="50" height="50" relative="1" as="geometry">
            <mxPoint x="-550" y="-570" as="sourcePoint" />
            <mxPoint x="-550" y="-540" as="targetPoint" />
          </mxGeometry>
        </mxCell>
        <mxCell id="25i5rknV7NlBSmyeyTin-26" value="" style="endArrow=none;html=1;rounded=0;exitX=1;exitY=0.75;exitDx=0;exitDy=0;" edge="1" parent="1" source="25i5rknV7NlBSmyeyTin-23" target="25i5rknV7NlBSmyeyTin-27">
          <mxGeometry width="50" height="50" relative="1" as="geometry">
            <mxPoint x="-550" y="-570" as="sourcePoint" />
            <mxPoint x="-490" y="-600" as="targetPoint" />
          </mxGeometry>
        </mxCell>
        <mxCell id="25i5rknV7NlBSmyeyTin-27" value="性别" style="ellipse;whiteSpace=wrap;html=1;" vertex="1" parent="1">
          <mxGeometry x="-550" y="-640" width="120" height="80" as="geometry" />
        </mxCell>
        <mxCell id="25i5rknV7NlBSmyeyTin-28" value="联系方式" style="ellipse;whiteSpace=wrap;html=1;" vertex="1" parent="1">
          <mxGeometry x="-660" y="-570" width="120" height="80" as="geometry" />
        </mxCell>
        <mxCell id="25i5rknV7NlBSmyeyTin-30" value="姓名" style="ellipse;whiteSpace=wrap;html=1;" vertex="1" parent="1">
          <mxGeometry x="-500" y="-720" width="120" height="80" as="geometry" />
        </mxCell>
        <mxCell id="25i5rknV7NlBSmyeyTin-31" value="" style="endArrow=none;html=1;rounded=0;exitX=0.25;exitY=1;exitDx=0;exitDy=0;" edge="1" parent="1" source="25i5rknV7NlBSmyeyTin-23" target="25i5rknV7NlBSmyeyTin-36">
          <mxGeometry width="50" height="50" relative="1" as="geometry">
            <mxPoint x="-550" y="-570" as="sourcePoint" />
            <mxPoint x="-720" y="-550" as="targetPoint" />
          </mxGeometry>
        </mxCell>
        <mxCell id="25i5rknV7NlBSmyeyTin-32" value="" style="endArrow=none;html=1;rounded=0;exitX=0;exitY=0.75;exitDx=0;exitDy=0;" edge="1" parent="1" source="25i5rknV7NlBSmyeyTin-23" target="25i5rknV7NlBSmyeyTin-33">
          <mxGeometry width="50" height="50" relative="1" as="geometry">
            <mxPoint x="-550" y="-570" as="sourcePoint" />
            <mxPoint x="-800" y="-600" as="targetPoint" />
          </mxGeometry>
        </mxCell>
        <mxCell id="25i5rknV7NlBSmyeyTin-33" value="家庭住址" style="ellipse;whiteSpace=wrap;html=1;" vertex="1" parent="1">
          <mxGeometry x="-900" y="-660" width="120" height="80" as="geometry" />
        </mxCell>
        <mxCell id="25i5rknV7NlBSmyeyTin-34" value="" style="endArrow=none;html=1;rounded=0;exitX=0;exitY=0.5;exitDx=0;exitDy=0;" edge="1" parent="1" source="25i5rknV7NlBSmyeyTin-23" target="25i5rknV7NlBSmyeyTin-35">
          <mxGeometry width="50" height="50" relative="1" as="geometry">
            <mxPoint x="-550" y="-570" as="sourcePoint" />
            <mxPoint x="-860" y="-720" as="targetPoint" />
          </mxGeometry>
        </mxCell>
        <mxCell id="25i5rknV7NlBSmyeyTin-35" value="工作楼号" style="ellipse;whiteSpace=wrap;html=1;" vertex="1" parent="1">
          <mxGeometry x="-920" y="-760" width="120" height="80" as="geometry" />
        </mxCell>
        <mxCell id="25i5rknV7NlBSmyeyTin-36" value="员工号" style="ellipse;whiteSpace=wrap;html=1;" vertex="1" parent="1">
          <mxGeometry x="-790" y="-590" width="120" height="80" as="geometry" />
        </mxCell>
        <mxCell id="25i5rknV7NlBSmyeyTin-37" value="" style="endArrow=none;html=1;rounded=0;exitX=0.103;exitY=0;exitDx=0;exitDy=0;exitPerimeter=0;" edge="1" parent="1" source="25i5rknV7NlBSmyeyTin-23" target="25i5rknV7NlBSmyeyTin-38">
          <mxGeometry width="50" height="50" relative="1" as="geometry">
            <mxPoint x="-550" y="-570" as="sourcePoint" />
            <mxPoint x="-760" y="-790" as="targetPoint" />
          </mxGeometry>
        </mxCell>
        <mxCell id="25i5rknV7NlBSmyeyTin-38" value="管理" style="ellipse;whiteSpace=wrap;html=1;" vertex="1" parent="1">
          <mxGeometry x="-820" y="-830" width="120" height="80" as="geometry" />
        </mxCell>
        <mxCell id="25i5rknV7NlBSmyeyTin-40" value="辅导员" style="rounded=0;whiteSpace=wrap;html=1;" vertex="1" parent="1">
          <mxGeometry x="-40" y="590" width="120" height="60" as="geometry" />
        </mxCell>
        <mxCell id="25i5rknV7NlBSmyeyTin-44" value="" style="endArrow=none;html=1;rounded=0;exitX=1;exitY=0.5;exitDx=0;exitDy=0;" edge="1" parent="1" source="25i5rknV7NlBSmyeyTin-40" target="25i5rknV7NlBSmyeyTin-54">
          <mxGeometry width="50" height="50" relative="1" as="geometry">
            <mxPoint x="-20" y="510" as="sourcePoint" />
            <mxPoint x="170" y="620" as="targetPoint" />
          </mxGeometry>
        </mxCell>
        <mxCell id="25i5rknV7NlBSmyeyTin-45" value="" style="endArrow=none;html=1;rounded=0;exitX=0.75;exitY=0;exitDx=0;exitDy=0;" edge="1" parent="1" source="25i5rknV7NlBSmyeyTin-40" target="25i5rknV7NlBSmyeyTin-53">
          <mxGeometry width="50" height="50" relative="1" as="geometry">
            <mxPoint x="-20" y="510" as="sourcePoint" />
            <mxPoint x="140" y="510" as="targetPoint" />
          </mxGeometry>
        </mxCell>
        <mxCell id="25i5rknV7NlBSmyeyTin-47" value="" style="endArrow=none;html=1;rounded=0;exitX=0.5;exitY=0;exitDx=0;exitDy=0;" edge="1" parent="1" source="25i5rknV7NlBSmyeyTin-40" target="25i5rknV7NlBSmyeyTin-52">
          <mxGeometry width="50" height="50" relative="1" as="geometry">
            <mxPoint x="-20" y="510" as="sourcePoint" />
            <mxPoint x="50" y="440" as="targetPoint" />
          </mxGeometry>
        </mxCell>
        <mxCell id="25i5rknV7NlBSmyeyTin-52" value="姓名" style="ellipse;whiteSpace=wrap;html=1;" vertex="1" parent="1">
          <mxGeometry x="-10" y="400" width="120" height="80" as="geometry" />
        </mxCell>
        <mxCell id="25i5rknV7NlBSmyeyTin-53" value="学院" style="ellipse;whiteSpace=wrap;html=1;" vertex="1" parent="1">
          <mxGeometry x="80" y="470" width="120" height="80" as="geometry" />
        </mxCell>
        <mxCell id="25i5rknV7NlBSmyeyTin-54" value="手机号" style="ellipse;whiteSpace=wrap;html=1;" vertex="1" parent="1">
          <mxGeometry x="110" y="580" width="120" height="80" as="geometry" />
        </mxCell>
        <mxCell id="25i5rknV7NlBSmyeyTin-55" value="" style="endArrow=none;html=1;rounded=0;exitX=0.683;exitY=1;exitDx=0;exitDy=0;exitPerimeter=0;" edge="1" parent="1" source="25i5rknV7NlBSmyeyTin-40" target="25i5rknV7NlBSmyeyTin-56">
          <mxGeometry width="50" height="50" relative="1" as="geometry">
            <mxPoint x="-20" y="510" as="sourcePoint" />
            <mxPoint x="150" y="720" as="targetPoint" />
          </mxGeometry>
        </mxCell>
        <mxCell id="25i5rknV7NlBSmyeyTin-56" value="性别" style="ellipse;whiteSpace=wrap;html=1;" vertex="1" parent="1">
          <mxGeometry x="90" y="680" width="120" height="80" as="geometry" />
        </mxCell>
        <mxCell id="25i5rknV7NlBSmyeyTin-57" value="学生" style="rounded=0;whiteSpace=wrap;html=1;" vertex="1" parent="1">
          <mxGeometry x="-320" y="1160" width="120" height="60" as="geometry" />
        </mxCell>
        <mxCell id="25i5rknV7NlBSmyeyTin-58" value="" style="endArrow=none;html=1;rounded=0;entryX=0.75;entryY=1;entryDx=0;entryDy=0;" edge="1" parent="1" target="25i5rknV7NlBSmyeyTin-57">
          <mxGeometry width="50" height="50" relative="1" as="geometry">
            <mxPoint x="-120" y="1300" as="sourcePoint" />
            <mxPoint x="40" y="1140" as="targetPoint" />
          </mxGeometry>
        </mxCell>
        <mxCell id="25i5rknV7NlBSmyeyTin-64" style="edgeStyle=orthogonalEdgeStyle;rounded=0;orthogonalLoop=1;jettySize=auto;html=1;exitX=0.5;exitY=0;exitDx=0;exitDy=0;" edge="1" parent="1" source="25i5rknV7NlBSmyeyTin-60">
          <mxGeometry relative="1" as="geometry">
            <mxPoint x="-79.54545454545496" y="1259.9090909090905" as="targetPoint" />
          </mxGeometry>
        </mxCell>
        <mxCell id="25i5rknV7NlBSmyeyTin-60" value="信息填入修改查询" style="rhombus;whiteSpace=wrap;html=1;" vertex="1" parent="1">
          <mxGeometry x="-120" y="1260" width="80" height="80" as="geometry" />
        </mxCell>
        <mxCell id="25i5rknV7NlBSmyeyTin-61" value="" style="endArrow=none;html=1;rounded=0;exitX=1;exitY=0.5;exitDx=0;exitDy=0;" edge="1" parent="1" source="25i5rknV7NlBSmyeyTin-60" target="25i5rknV7NlBSmyeyTin-62">
          <mxGeometry width="50" height="50" relative="1" as="geometry">
            <mxPoint x="-20" y="1270" as="sourcePoint" />
            <mxPoint x="50" y="1300" as="targetPoint" />
          </mxGeometry>
        </mxCell>
        <mxCell id="25i5rknV7NlBSmyeyTin-62" value="管理系统" style="rounded=0;whiteSpace=wrap;html=1;" vertex="1" parent="1">
          <mxGeometry x="-10" y="1270" width="120" height="60" as="geometry" />
        </mxCell>
        <mxCell id="25i5rknV7NlBSmyeyTin-63" value="" style="endArrow=none;html=1;rounded=0;exitX=1;exitY=0.5;exitDx=0;exitDy=0;entryX=0;entryY=0.5;entryDx=0;entryDy=0;" edge="1" parent="1" source="25i5rknV7NlBSmyeyTin-62" target="25i5rknV7NlBSmyeyTin-66">
          <mxGeometry width="50" height="50" relative="1" as="geometry">
            <mxPoint x="-20" y="1270" as="sourcePoint" />
            <mxPoint x="200" y="1300" as="targetPoint" />
          </mxGeometry>
        </mxCell>
        <mxCell id="25i5rknV7NlBSmyeyTin-65" style="edgeStyle=orthogonalEdgeStyle;rounded=0;orthogonalLoop=1;jettySize=auto;html=1;exitX=0.5;exitY=0;exitDx=0;exitDy=0;" edge="1" parent="1">
          <mxGeometry relative="1" as="geometry">
            <mxPoint x="240.45454545454504" y="1269.9090909090905" as="targetPoint" />
            <mxPoint x="240" y="1270" as="sourcePoint" />
          </mxGeometry>
        </mxCell>
        <mxCell id="25i5rknV7NlBSmyeyTin-66" value="信息填入修改查询" style="rhombus;whiteSpace=wrap;html=1;" vertex="1" parent="1">
          <mxGeometry x="210" y="1260" width="80" height="80" as="geometry" />
        </mxCell>
        <mxCell id="25i5rknV7NlBSmyeyTin-67" value="" style="endArrow=none;html=1;rounded=0;exitX=1;exitY=0.5;exitDx=0;exitDy=0;" edge="1" parent="1" source="25i5rknV7NlBSmyeyTin-66" target="25i5rknV7NlBSmyeyTin-68">
          <mxGeometry width="50" height="50" relative="1" as="geometry">
            <mxPoint x="250" y="1260" as="sourcePoint" />
            <mxPoint x="360" y="1300" as="targetPoint" />
          </mxGeometry>
        </mxCell>
        <mxCell id="25i5rknV7NlBSmyeyTin-68" value="辅导员" style="rounded=0;whiteSpace=wrap;html=1;" vertex="1" parent="1">
          <mxGeometry x="365" y="1270" width="120" height="60" as="geometry" />
        </mxCell>
        <mxCell id="25i5rknV7NlBSmyeyTin-69" value="" style="endArrow=none;html=1;rounded=0;" edge="1" parent="1" target="25i5rknV7NlBSmyeyTin-70">
          <mxGeometry width="50" height="50" relative="1" as="geometry">
            <mxPoint x="50" y="1150" as="sourcePoint" />
            <mxPoint x="50" y="1160" as="targetPoint" />
          </mxGeometry>
        </mxCell>
        <mxCell id="25i5rknV7NlBSmyeyTin-70" value="宿管人员" style="rounded=0;whiteSpace=wrap;html=1;" vertex="1" parent="1">
          <mxGeometry x="-10" y="1030" width="120" height="60" as="geometry" />
        </mxCell>
        <mxCell id="25i5rknV7NlBSmyeyTin-73" value="" style="endArrow=none;html=1;rounded=0;exitX=0;exitY=0.5;exitDx=0;exitDy=0;" edge="1" parent="1" source="25i5rknV7NlBSmyeyTin-57" target="25i5rknV7NlBSmyeyTin-74">
          <mxGeometry width="50" height="50" relative="1" as="geometry">
            <mxPoint x="-40" y="1260" as="sourcePoint" />
            <mxPoint x="-380" y="1130" as="targetPoint" />
          </mxGeometry>
        </mxCell>
        <mxCell id="25i5rknV7NlBSmyeyTin-74" value="学号" style="ellipse;whiteSpace=wrap;html=1;" vertex="1" parent="1">
          <mxGeometry x="-440" y="1090" width="120" height="80" as="geometry" />
        </mxCell>
        <mxCell id="25i5rknV7NlBSmyeyTin-75" value="" style="endArrow=none;html=1;rounded=0;exitX=0.25;exitY=1;exitDx=0;exitDy=0;" edge="1" parent="1" source="25i5rknV7NlBSmyeyTin-57" target="25i5rknV7NlBSmyeyTin-76">
          <mxGeometry width="50" height="50" relative="1" as="geometry">
            <mxPoint x="-40" y="1260" as="sourcePoint" />
            <mxPoint x="-340" y="1280" as="targetPoint" />
          </mxGeometry>
        </mxCell>
        <mxCell id="25i5rknV7NlBSmyeyTin-76" value="姓名" style="ellipse;whiteSpace=wrap;html=1;" vertex="1" parent="1">
          <mxGeometry x="-400" y="1240" width="120" height="80" as="geometry" />
        </mxCell>
        <mxCell id="25i5rknV7NlBSmyeyTin-77" value="" style="endArrow=none;html=1;rounded=0;exitX=0.5;exitY=0;exitDx=0;exitDy=0;" edge="1" parent="1" source="25i5rknV7NlBSmyeyTin-57" target="25i5rknV7NlBSmyeyTin-78">
          <mxGeometry width="50" height="50" relative="1" as="geometry">
            <mxPoint x="-40" y="1260" as="sourcePoint" />
            <mxPoint x="-230" y="1080" as="targetPoint" />
          </mxGeometry>
        </mxCell>
        <mxCell id="25i5rknV7NlBSmyeyTin-78" value="宿舍号" style="ellipse;whiteSpace=wrap;html=1;" vertex="1" parent="1">
          <mxGeometry x="-290" y="1040" width="120" height="80" as="geometry" />
        </mxCell>
        <mxCell id="25i5rknV7NlBSmyeyTin-79" value="" style="endArrow=none;html=1;rounded=0;exitX=0.5;exitY=0;exitDx=0;exitDy=0;" edge="1" parent="1" source="25i5rknV7NlBSmyeyTin-70" target="25i5rknV7NlBSmyeyTin-80">
          <mxGeometry width="50" height="50" relative="1" as="geometry">
            <mxPoint x="30" y="1260" as="sourcePoint" />
            <mxPoint x="110" y="1060" as="targetPoint" />
          </mxGeometry>
        </mxCell>
        <mxCell id="25i5rknV7NlBSmyeyTin-80" value="姓名" style="ellipse;whiteSpace=wrap;html=1;" vertex="1" parent="1">
          <mxGeometry x="-110" y="900" width="120" height="80" as="geometry" />
        </mxCell>
        <mxCell id="25i5rknV7NlBSmyeyTin-81" value="" style="endArrow=none;html=1;rounded=0;exitX=1;exitY=0.5;exitDx=0;exitDy=0;" edge="1" parent="1" source="25i5rknV7NlBSmyeyTin-70" target="25i5rknV7NlBSmyeyTin-82">
          <mxGeometry width="50" height="50" relative="1" as="geometry">
            <mxPoint x="30" y="1260" as="sourcePoint" />
            <mxPoint x="190" y="1160" as="targetPoint" />
          </mxGeometry>
        </mxCell>
        <mxCell id="25i5rknV7NlBSmyeyTin-82" value="性别" style="ellipse;whiteSpace=wrap;html=1;" vertex="1" parent="1">
          <mxGeometry x="90" y="940" width="120" height="80" as="geometry" />
        </mxCell>
        <mxCell id="25i5rknV7NlBSmyeyTin-86" value="信息统计登录" style="rhombus;whiteSpace=wrap;html=1;" vertex="1" parent="1">
          <mxGeometry x="10" y="1140" width="80" height="80" as="geometry" />
        </mxCell>
        <mxCell id="25i5rknV7NlBSmyeyTin-87" value="" style="endArrow=none;html=1;rounded=0;exitX=0.5;exitY=1;exitDx=0;exitDy=0;entryX=0.5;entryY=0;entryDx=0;entryDy=0;" edge="1" parent="1" source="25i5rknV7NlBSmyeyTin-86" target="25i5rknV7NlBSmyeyTin-62">
          <mxGeometry width="50" height="50" relative="1" as="geometry">
            <mxPoint x="30" y="1170" as="sourcePoint" />
            <mxPoint x="80" y="1120" as="targetPoint" />
          </mxGeometry>
        </mxCell>
        <mxCell id="25i5rknV7NlBSmyeyTin-89" style="edgeStyle=orthogonalEdgeStyle;rounded=0;orthogonalLoop=1;jettySize=auto;html=1;exitX=0.25;exitY=1;exitDx=0;exitDy=0;entryX=0.5;entryY=0;entryDx=0;entryDy=0;" edge="1" parent="1" source="25i5rknV7NlBSmyeyTin-88" target="25i5rknV7NlBSmyeyTin-101">
          <mxGeometry relative="1" as="geometry">
            <mxPoint x="-380" y="1970" as="targetPoint" />
            <Array as="points">
              <mxPoint x="-60" y="1890" />
              <mxPoint x="-590" y="1890" />
            </Array>
          </mxGeometry>
        </mxCell>
        <mxCell id="25i5rknV7NlBSmyeyTin-90" style="edgeStyle=orthogonalEdgeStyle;rounded=0;orthogonalLoop=1;jettySize=auto;html=1;exitX=0.5;exitY=1;exitDx=0;exitDy=0;entryX=0.5;entryY=0;entryDx=0;entryDy=0;entryPerimeter=0;" edge="1" parent="1" source="25i5rknV7NlBSmyeyTin-88" target="25i5rknV7NlBSmyeyTin-110">
          <mxGeometry relative="1" as="geometry">
            <mxPoint x="-30" y="1960" as="targetPoint" />
          </mxGeometry>
        </mxCell>
        <mxCell id="25i5rknV7NlBSmyeyTin-91" style="edgeStyle=orthogonalEdgeStyle;rounded=0;orthogonalLoop=1;jettySize=auto;html=1;exitX=0.75;exitY=1;exitDx=0;exitDy=0;entryX=0.5;entryY=0;entryDx=0;entryDy=0;" edge="1" parent="1" source="25i5rknV7NlBSmyeyTin-88" target="25i5rknV7NlBSmyeyTin-93">
          <mxGeometry relative="1" as="geometry">
            <mxPoint x="365" y="2030" as="targetPoint" />
          </mxGeometry>
        </mxCell>
        <mxCell id="25i5rknV7NlBSmyeyTin-88" value="学生宿舍管理系统页面" style="rounded=0;whiteSpace=wrap;html=1;" vertex="1" parent="1">
          <mxGeometry x="-90" y="1740" width="120" height="60" as="geometry" />
        </mxCell>
        <mxCell id="25i5rknV7NlBSmyeyTin-92" value="" style="rounded=1;whiteSpace=wrap;html=1;" vertex="1" parent="1">
          <mxGeometry x="220" y="2100" width="450" height="200" as="geometry" />
        </mxCell>
        <mxCell id="25i5rknV7NlBSmyeyTin-93" value="辅导员" style="rounded=0;whiteSpace=wrap;html=1;" vertex="1" parent="1">
          <mxGeometry x="305" y="2030" width="120" height="60" as="geometry" />
        </mxCell>
        <mxCell id="25i5rknV7NlBSmyeyTin-95" value="&lt;p class=&quot;MsoNormal&quot;&gt;&lt;font face=&quot;serif&quot;&gt;学生出入管理&lt;/font&gt;&lt;/p&gt;" style="rounded=0;whiteSpace=wrap;html=1;" vertex="1" parent="1">
          <mxGeometry x="240" y="2120" width="120" height="60" as="geometry" />
        </mxCell>
        <mxCell id="25i5rknV7NlBSmyeyTin-97" value="&lt;p class=&quot;MsoNormal&quot;&gt;&lt;font face=&quot;serif&quot;&gt;学生信息管理&lt;/font&gt;&lt;/p&gt;" style="rounded=0;whiteSpace=wrap;html=1;" vertex="1" parent="1">
          <mxGeometry x="380" y="2120" width="120" height="60" as="geometry" />
        </mxCell>
        <mxCell id="25i5rknV7NlBSmyeyTin-98" value="&lt;p class=&quot;MsoNormal&quot;&gt;&lt;font face=&quot;serif&quot;&gt;学生宿舍卫生管理&lt;/font&gt;&lt;/p&gt;" style="rounded=0;whiteSpace=wrap;html=1;" vertex="1" parent="1">
          <mxGeometry x="520" y="2120" width="120" height="60" as="geometry" />
        </mxCell>
        <mxCell id="25i5rknV7NlBSmyeyTin-100" value="&lt;p class=&quot;MsoNormal&quot;&gt;&lt;font face=&quot;serif&quot;&gt;学生管理&lt;/font&gt;&lt;/p&gt;" style="rounded=0;whiteSpace=wrap;html=1;" vertex="1" parent="1">
          <mxGeometry x="240" y="2200" width="120" height="60" as="geometry" />
        </mxCell>
        <mxCell id="25i5rknV7NlBSmyeyTin-101" value="学生" style="rounded=0;whiteSpace=wrap;html=1;" vertex="1" parent="1">
          <mxGeometry x="-650" y="1970" width="120" height="50" as="geometry" />
        </mxCell>
        <mxCell id="25i5rknV7NlBSmyeyTin-102" value="" style="rounded=1;whiteSpace=wrap;html=1;" vertex="1" parent="1">
          <mxGeometry x="-830" y="2030" width="480" height="210" as="geometry" />
        </mxCell>
        <mxCell id="25i5rknV7NlBSmyeyTin-103" value="&lt;p class=&quot;MsoNormal&quot;&gt;&lt;font face=&quot;serif&quot;&gt;处理学生注册&lt;/font&gt;&lt;/p&gt;" style="rounded=0;whiteSpace=wrap;html=1;" vertex="1" parent="1">
          <mxGeometry x="-790" y="2060" width="120" height="60" as="geometry" />
        </mxCell>
        <mxCell id="25i5rknV7NlBSmyeyTin-104" value="&lt;p class=&quot;MsoNormal&quot;&gt;&lt;font face=&quot;serif&quot;&gt;处理学生登陆&lt;/font&gt;&lt;/p&gt;" style="rounded=0;whiteSpace=wrap;html=1;" vertex="1" parent="1">
          <mxGeometry x="-630" y="2060" width="120" height="60" as="geometry" />
        </mxCell>
        <mxCell id="25i5rknV7NlBSmyeyTin-105" value="&lt;p class=&quot;MsoNormal&quot;&gt;&lt;font face=&quot;serif&quot;&gt;学生可以查询和提交自己的卫生信息和维修信息&lt;/font&gt;&lt;/p&gt;" style="rounded=0;whiteSpace=wrap;html=1;" vertex="1" parent="1">
          <mxGeometry x="-490" y="2060" width="120" height="60" as="geometry" />
        </mxCell>
        <mxCell id="25i5rknV7NlBSmyeyTin-106" value="&lt;p class=&quot;MsoNormal&quot;&gt;&lt;font face=&quot;serif&quot;&gt;学生可以修改自己的密码&lt;/font&gt;&lt;/p&gt;" style="rounded=0;whiteSpace=wrap;html=1;" vertex="1" parent="1">
          <mxGeometry x="-790" y="2150" width="120" height="60" as="geometry" />
        </mxCell>
        <mxCell id="25i5rknV7NlBSmyeyTin-107" value="&lt;p class=&quot;MsoNormal&quot;&gt;&lt;font face=&quot;serif&quot;&gt;学生可以提交离校信息&lt;/font&gt;&lt;/p&gt;" style="rounded=0;whiteSpace=wrap;html=1;" vertex="1" parent="1">
          <mxGeometry x="-630" y="2150" width="120" height="60" as="geometry" />
        </mxCell>
        <mxCell id="25i5rknV7NlBSmyeyTin-108" value="&lt;p class=&quot;MsoNormal&quot;&gt;&lt;font face=&quot;serif&quot;&gt;学生可以通过管理系统查看楼层管理人员和自己输入的信息&lt;/font&gt;&lt;/p&gt;" style="rounded=0;whiteSpace=wrap;html=1;" vertex="1" parent="1">
          <mxGeometry x="-480" y="2150" width="120" height="60" as="geometry" />
        </mxCell>
        <mxCell id="25i5rknV7NlBSmyeyTin-109" style="edgeStyle=orthogonalEdgeStyle;rounded=0;orthogonalLoop=1;jettySize=auto;html=1;exitX=0.5;exitY=1;exitDx=0;exitDy=0;" edge="1" parent="1" source="25i5rknV7NlBSmyeyTin-102" target="25i5rknV7NlBSmyeyTin-102">
          <mxGeometry relative="1" as="geometry" />
        </mxCell>
        <mxCell id="25i5rknV7NlBSmyeyTin-110" value="宿管" style="rounded=0;whiteSpace=wrap;html=1;" vertex="1" parent="1">
          <mxGeometry x="-90" y="1970" width="120" height="60" as="geometry" />
        </mxCell>
        <mxCell id="25i5rknV7NlBSmyeyTin-111" value="" style="rounded=1;whiteSpace=wrap;html=1;" vertex="1" parent="1">
          <mxGeometry x="-260" y="2040" width="430" height="280" as="geometry" />
        </mxCell>
        <mxCell id="25i5rknV7NlBSmyeyTin-112" value="&lt;p class=&quot;MsoNormal&quot;&gt;&lt;font face=&quot;serif&quot;&gt;处理楼层管理员登录&lt;/font&gt;&lt;/p&gt;" style="rounded=0;whiteSpace=wrap;html=1;" vertex="1" parent="1">
          <mxGeometry x="-240" y="2060" width="120" height="60" as="geometry" />
        </mxCell>
        <mxCell id="25i5rknV7NlBSmyeyTin-113" value="&lt;p class=&quot;MsoNormal&quot;&gt;&lt;font face=&quot;serif&quot;&gt;楼层管理员可以输入学生信息&lt;/font&gt;&lt;/p&gt;" style="rounded=0;whiteSpace=wrap;html=1;" vertex="1" parent="1">
          <mxGeometry x="-105" y="2060" width="120" height="60" as="geometry" />
        </mxCell>
        <mxCell id="25i5rknV7NlBSmyeyTin-114" value="&lt;p class=&quot;MsoNormal&quot;&gt;&lt;font face=&quot;serif&quot;&gt;楼层管理员可以输入夜不归宿和夜归信息&lt;/font&gt;&lt;/p&gt;" style="rounded=0;whiteSpace=wrap;html=1;" vertex="1" parent="1">
          <mxGeometry x="40" y="2060" width="120" height="60" as="geometry" />
        </mxCell>
        <mxCell id="25i5rknV7NlBSmyeyTin-115" value="&lt;p class=&quot;MsoNormal&quot;&gt;&lt;font face=&quot;serif&quot;&gt;楼层管理员可以输入卫生和维修信息&lt;/font&gt;&lt;/p&gt;" style="rounded=0;whiteSpace=wrap;html=1;" vertex="1" parent="1">
          <mxGeometry x="-240" y="2130" width="120" height="60" as="geometry" />
        </mxCell>
        <mxCell id="25i5rknV7NlBSmyeyTin-116" value="&lt;p class=&quot;MsoNormal&quot;&gt;&lt;font face=&quot;serif&quot;&gt;楼层管理员可以通过管理系统查看楼层管理人员和自己输入的信息&lt;/font&gt;&lt;/p&gt;" style="rounded=0;whiteSpace=wrap;html=1;" vertex="1" parent="1">
          <mxGeometry x="-105" y="2130" width="120" height="60" as="geometry" />
        </mxCell>
        <mxCell id="25i5rknV7NlBSmyeyTin-117" value="&lt;p class=&quot;MsoNormal&quot;&gt;&lt;font face=&quot;serif&quot;&gt;管理员通过学生与楼层管理员提供的信息做成表格，并且表格实时查看和修改&lt;/font&gt;&lt;/p&gt;" style="rounded=0;whiteSpace=wrap;html=1;" vertex="1" parent="1">
          <mxGeometry x="40" y="2130" width="120" height="60" as="geometry" />
        </mxCell>
        <mxCell id="25i5rknV7NlBSmyeyTin-118" value="&lt;p class=&quot;MsoNormal&quot;&gt;&lt;font face=&quot;serif&quot;&gt;管理员可以提供信息给楼层管理员和学生&lt;/font&gt;&lt;/p&gt;" style="rounded=0;whiteSpace=wrap;html=1;" vertex="1" parent="1">
          <mxGeometry x="-240" y="2210" width="120" height="60" as="geometry" />
        </mxCell>
      </root>
    </mxGraphModel>
  </diagram>
</mxfile>
